<svg xmlns="http://www.w3.org/2000/svg" viewBox="0 0 32.82 32.82"><defs><style>.cls-1{fill:#fff;}</style></defs><g id="Calque_2" data-name="Calque 2"><g id="PAGE_4" data-name="PAGE 4"><path class="cls-1" d="M4,19.33,5.5,19l2.27-.45,6.06-1.1L8.77,21c-.36.26-1.21.82-1.95,1.31l-1.27.85h0a4.81,4.81,0,0,0-.74.61A3,3,0,0,0,9.07,28,6.39,6.39,0,0,0,10,26.79l.29-.46c1.06-1.6,2.2-3.21,3.22-4.63L15.34,19,14.25,25c-.08.43-.28,1.39-.45,2.25-.14.7-.27,1.33-.31,1.56h0a4.88,4.88,0,0,0-.1.95,3,3,0,1,0,6,0,6.1,6.1,0,0,0-.24-1.49l-.12-.52c-.37-1.85-.69-3.73-1-5.56L17.47,19l1.91,2.75c1.07,1.5,2.17,3.05,3.2,4.6l.29.46A5.72,5.72,0,0,0,23.75,28,3,3,0,0,0,28,23.75a4.81,4.81,0,0,0-.74-.61h0L26,22.29C25.25,21.8,24.41,21.24,24,21L19,17.47,25,18.57l2.28.45,1.53.31a5.61,5.61,0,0,0,.95.09,3,3,0,1,0,0-6,6,6,0,0,0-1.48.24l-.53.12c-1.83.37-3.7.69-5.56,1L19,15.34,24,11.83c.36-.25,1.18-.79,1.92-1.28l1.31-.87A6.18,6.18,0,0,0,28,9.07a3,3,0,0,0,.88-2.13A3,3,0,0,0,28,4.81a3.08,3.08,0,0,0-4.26,0A5.66,5.66,0,0,0,22.87,6c-.1.16-.19.32-.29.46-1,1.54-2.11,3.07-3.22,4.64l-1.89,2.71,1.1-6.06c.08-.43.27-1.39.45-2.25.14-.7.27-1.33.31-1.55h0a5.81,5.81,0,0,0,.09-1,3,3,0,0,0-6,0,6.63,6.63,0,0,0,.24,1.49c0,.18.09.35.13.53.37,1.84.69,3.72,1,5.55l.59,3.25-1.89-2.72c-1.06-1.5-2.16-3-3.21-4.63-.1-.14-.19-.3-.29-.45a6.09,6.09,0,0,0-.88-1.22,3.08,3.08,0,0,0-4.26,0,3,3,0,0,0-.89,2.13,3,3,0,0,0,.89,2.13,5.47,5.47,0,0,0,.74.61l1.31.87,1.91,1.28,5.06,3.51-3.31-.6c-1.8-.3-3.67-.62-5.49-1a5,5,0,0,1-.53-.12A6.1,6.1,0,0,0,3,13.39a3,3,0,0,0,0,6A5.63,5.63,0,0,0,4,19.33Z"/></g></g></svg>