<svg xmlns="http://www.w3.org/2000/svg" viewBox="0 0 31.61 31.61"><defs><style>.cls-1{fill:#fff;}</style></defs><g id="Calque_2" data-name="Calque 2"><g id="PAGE_4" data-name="PAGE 4"><path class="cls-1" d="M11.1,16.23a1.71,1.71,0,0,1,.84.44,1.73,1.73,0,0,1-.55.66,8.24,8.24,0,0,1-1.15.63L1.26,22l.27.58,9-4a8.12,8.12,0,0,1,1.09-.4,1.8,1.8,0,0,1,.86,0,1.66,1.66,0,0,1-.25.68,4.42,4.42,0,0,1-.5.64l-7.3,7.3.46.46,7.3-7.3a4.35,4.35,0,0,1,.61-.48,1.72,1.72,0,0,1,.88-.28,1.72,1.72,0,0,1,.1.91,5.29,5.29,0,0,1-.18.76L9.91,30.47l.6.23L14.17,21a4.62,4.62,0,0,1,.36-.68,1.74,1.74,0,0,1,.54-.54,1.65,1.65,0,0,1,.33.79,7,7,0,0,1,.09,1.16v9.84h.64V21.77a7.58,7.58,0,0,1,.1-1.31,1.68,1.68,0,0,1,.38-.78,1.64,1.64,0,0,1,.73.56,5.55,5.55,0,0,1,.42.69L22,30.35l.58-.27-4.24-9.41a5.51,5.51,0,0,1-.23-.75,1.71,1.71,0,0,1,0-.78,1.5,1.5,0,0,1,.66.26,7.47,7.47,0,0,1,1,.85l7,7,.46-.46-7-6.95a8.34,8.34,0,0,1-.76-.88,1.71,1.71,0,0,1-.33-1,1.76,1.76,0,0,1,1-.09,8.13,8.13,0,0,1,1.11.34l9.2,3.48.23-.6-9.2-3.48a7.32,7.32,0,0,1-1.19-.57,1.6,1.6,0,0,1-.51-.49,1.6,1.6,0,0,1,.71-.33,4.1,4.1,0,0,1,.77-.1H31.61v-.65H21.28a4.54,4.54,0,0,1-.77-.09,1.72,1.72,0,0,1-.84-.45,1.73,1.73,0,0,1,.55-.66,8.24,8.24,0,0,1,1.15-.63l9-4.05L30.08,9l-9,4a8.12,8.12,0,0,1-1.09.4,1.58,1.58,0,0,1-.86,0,1.66,1.66,0,0,1,.25-.68,3.72,3.72,0,0,1,.5-.64l7.3-7.3-.46-.46-7.3,7.3a4.35,4.35,0,0,1-.61.48,1.72,1.72,0,0,1-.87.28,1.54,1.54,0,0,1-.1-.91,3.77,3.77,0,0,1,.18-.75L21.7,1.14,21.1.91l-3.65,9.66a5.57,5.57,0,0,1-.37.68,1.64,1.64,0,0,1-.54.54,1.75,1.75,0,0,1-.33-.79,8.34,8.34,0,0,1-.08-1.16V0h-.64V9.84a7.54,7.54,0,0,1-.11,1.31,1.68,1.68,0,0,1-.38.78,1.56,1.56,0,0,1-.72-.56,5.07,5.07,0,0,1-.43-.69L9.6,1.26,9,1.53l4.24,9.41a5.51,5.51,0,0,1,.23.75,1.71,1.71,0,0,1,0,.78,1.5,1.5,0,0,1-.66-.26,6.85,6.85,0,0,1-1-.85l-7-7-.46.46,7,7a7.32,7.32,0,0,1,.76.88,1.66,1.66,0,0,1,.33,1,1.76,1.76,0,0,1-1,.09,8.13,8.13,0,0,1-1.11-.34L1.14,9.91l-.23.6L10.11,14a7.32,7.32,0,0,1,1.19.57,1.6,1.6,0,0,1,.51.49,1.6,1.6,0,0,1-.71.33,4.1,4.1,0,0,1-.77.1H0v.65H10.33A4.1,4.1,0,0,1,11.1,16.23Z"/></g></g></svg>